<?xml version="1.0" encoding="UTF-8"?>
<svg width="1200pt" height="1200pt" version="1.1" viewBox="0 0 1200 1200" xmlns="http://www.w3.org/2000/svg">
 <g fill="#453d26">
  <path d="m933.6 304.8-30-30-34.801 34.801-24 10.801s-722.4 752.4-742.8 772.8c-20.398 20.398-32.398 48-32.398 48s27.602-10.801 48-31.199c20.398-20.398 775.2-745.2 775.2-745.2l7.1992-24z"/>
  <path d="m1118.4 90c-13.199-13.199-32.398-15.602-48-8.3984 7.2031-12-3.5977-21.602-3.5977-21.602-6 45.602-108-27.602-174 54-64.801 81.602 24 145.2 24 145.2l31.199 31.199s78-24 115.2-115.2c0 0 1.1992-9.6016-9.6016-20.398-9.5977-10.801-20.398-10.801-20.398-10.801s-13.199 4.8008-32.398 16.801c0-19.199-3.6016-40.801-16.801-61.199 25.199 2.3984 49.199 10.801 68.398 0-4.8008 8.3984-6 18-4.8008 27.602 6 2.3984 14.398 6 21.602 13.199 7.1992 7.1992 10.801 15.602 13.199 21.602 13.199 2.3984 26.398-1.1992 37.199-12 15.602-16.805 15.602-43.203-1.1992-60.004zm-201.6 38.398c2.3984-2.3984 4.8008-6 7.1992-8.3984 12 14.398 28.801 46.801 20.398 96-4.8008 6-8.3984 12-13.199 19.199-19.199-13.199-55.199-50.398-14.398-106.8zm69.598 43.203c-8.3984 7.1992-16.801 14.398-26.398 24 2.3984-26.398-2.3984-57.602-26.398-84 10.801-8.3984 21.602-12 33.602-12 9.5977 14.398 20.398 37.199 19.195 72z"/>
 </g>
</svg>
